<svg width="28" height="28" viewBox="0 0 28 28" fill="none" xmlns="http://www.w3.org/2000/svg">
<path d="M18.6667 23.3333V4.66659C18.6667 4.04775 18.4208 3.45425 17.9832 3.01667C17.5457 2.57908 16.9522 2.33325 16.3333 2.33325H11.6667C11.0478 2.33325 10.4543 2.57908 10.0168 3.01667C9.57917 3.45425 9.33333 4.04775 9.33333 4.66659V23.3333" stroke="white" stroke-width="2.33333" stroke-linecap="round" stroke-linejoin="round"/>
<path d="M23.3333 7H4.66667C3.378 7 2.33333 8.04467 2.33333 9.33333V21C2.33333 22.2887 3.378 23.3333 4.66667 23.3333H23.3333C24.622 23.3333 25.6667 22.2887 25.6667 21V9.33333C25.6667 8.04467 24.622 7 23.3333 7Z" stroke="white" stroke-width="2.33333" stroke-linecap="round" stroke-linejoin="round"/>
</svg>
