<svg width="20" height="20" viewBox="0 0 20 20" fill="none" xmlns="http://www.w3.org/2000/svg">
<path d="M9.60417 1.91274C9.64069 1.83895 9.6971 1.77685 9.76705 1.73342C9.83699 1.69 9.91768 1.66699 10 1.66699C10.0823 1.66699 10.163 1.69 10.233 1.73342C10.3029 1.77685 10.3593 1.83895 10.3958 1.91274L12.3208 5.8119C12.4476 6.06854 12.6348 6.29058 12.8664 6.45895C13.0979 6.62732 13.3668 6.737 13.65 6.77857L17.955 7.40857C18.0366 7.42039 18.1132 7.4548 18.1762 7.5079C18.2393 7.56101 18.2862 7.63069 18.3117 7.70908C18.3372 7.78746 18.3402 7.87141 18.3205 7.95143C18.3008 8.03146 18.259 8.10436 18.2 8.1619L15.0867 11.1936C14.8813 11.3937 14.7277 11.6406 14.639 11.9133C14.5503 12.1859 14.5292 12.476 14.5775 12.7586L15.3125 17.0419C15.3269 17.1234 15.3181 17.2074 15.2871 17.2841C15.2561 17.3609 15.2041 17.4274 15.1371 17.4761C15.0701 17.5247 14.9908 17.5536 14.9082 17.5593C14.8256 17.5651 14.7431 17.5475 14.67 17.5086L10.8217 15.4852C10.5681 15.3521 10.286 15.2825 9.99959 15.2825C9.71319 15.2825 9.43107 15.3521 9.1775 15.4852L5.33 17.5086C5.25694 17.5472 5.1745 17.5646 5.09204 17.5588C5.00959 17.5529 4.93043 17.524 4.86358 17.4754C4.79673 17.4268 4.74486 17.3604 4.71388 17.2838C4.6829 17.2071 4.67405 17.1233 4.68834 17.0419L5.4225 12.7594C5.471 12.4767 5.44999 12.1864 5.36128 11.9136C5.27258 11.6408 5.11884 11.3937 4.91334 11.1936L1.8 8.16274C1.7405 8.10526 1.69833 8.03223 1.6783 7.95197C1.65828 7.8717 1.6612 7.78742 1.68673 7.70873C1.71227 7.63004 1.75939 7.5601 1.82273 7.50689C1.88607 7.45367 1.96309 7.41932 2.045 7.40774L6.34917 6.77857C6.63272 6.73732 6.90199 6.62778 7.13382 6.45939C7.36565 6.291 7.55309 6.0688 7.68 5.8119L9.60417 1.91274Z" fill="#0D3FC9" stroke="#0D3FC9" stroke-width="1.66667" stroke-linecap="round" stroke-linejoin="round"/>
</svg>
